<svg width="13" height="12" viewBox="0 0 13 12" fill="none" xmlns="http://www.w3.org/2000/svg">
<path fill-rule="evenodd" clip-rule="evenodd" d="M0.561398 2.22972C0.737918 1.20606 1.55248 0.453576 2.58053 0.297325C3.56557 0.147612 4.91689 0 6.41599 0C7.91508 0 9.26641 0.147612 10.2514 0.297325C11.2795 0.453576 12.0941 1.20606 12.2706 2.22971C12.3936 2.94315 12.499 3.84945 12.499 4.86099C12.499 5.87253 12.3936 6.77882 12.2706 7.49226C12.0941 8.51592 11.2795 9.2684 10.2514 9.42465C9.35029 9.56161 8.14258 9.69682 6.79561 9.71885L3.07566 11.9146C2.67016 12.1539 2.1579 11.8619 2.1579 11.3914V9.32335C1.33461 9.04988 0.712926 8.37098 0.561398 7.49226C0.438372 6.77882 0.333008 5.87253 0.333008 4.86099C0.333008 3.84945 0.438372 2.94316 0.561398 2.22972ZM2.7662 3.64574C2.7662 3.31016 3.03854 3.03812 3.3745 3.03812H9.45748C9.79343 3.03812 10.0658 3.31016 10.0658 3.64574C10.0658 3.98132 9.79343 4.25336 9.45748 4.25336H3.3745C3.03854 4.25336 2.7662 3.98132 2.7662 3.64574ZM2.7662 6.07623C2.7662 5.74065 3.03854 5.46861 3.3745 5.46861H5.80769C6.14364 5.46861 6.41599 5.74065 6.41599 6.07623C6.41599 6.41181 6.14364 6.68386 5.80769 6.68386H3.3745C3.03854 6.68386 2.7662 6.41181 2.7662 6.07623Z" fill="#A9ABAD"/>
</svg>
