<svg width="44" height="44" viewBox="0 0 44 44" fill="none" xmlns="http://www.w3.org/2000/svg">
<rect width="44" height="44" rx="22" fill="#F2F6F8"/>
<path d="M29.4582 22.9603C29.2382 22.9603 29.0082 22.8903 28.7882 22.8403C28.3427 22.7421 27.9048 22.6118 27.4782 22.4503C27.0143 22.2815 26.5043 22.2903 26.0465 22.4749C25.5886 22.6595 25.2153 23.007 24.9982 23.4503L24.7782 23.9003C23.8042 23.3585 22.9092 22.6855 22.1182 21.9003C21.3329 21.1093 20.66 20.2143 20.1182 19.2403L20.5382 18.9603C20.9815 18.7432 21.3289 18.3698 21.5136 17.912C21.6982 17.4542 21.7069 16.9442 21.5382 16.4803C21.3794 16.0527 21.2491 15.6151 21.1482 15.1703C21.0982 14.9503 21.0582 14.7203 21.0282 14.4903C20.9067 13.7859 20.5378 13.1481 19.9878 12.6916C19.4378 12.2351 18.7429 11.9899 18.0282 12.0003H15.0282C14.5972 11.9963 14.1704 12.0851 13.7769 12.2608C13.3833 12.4366 13.0323 12.695 12.7476 13.0186C12.4629 13.3422 12.2513 13.7233 12.1272 14.136C12.003 14.5488 11.9692 14.9834 12.0282 15.4103C12.5609 19.5997 14.4742 23.4922 17.4658 26.473C20.4574 29.4537 24.3569 31.3528 28.5482 31.8703H28.9282C29.6656 31.8714 30.3776 31.6008 30.9282 31.1103C31.2445 30.8274 31.4973 30.4805 31.6696 30.0926C31.842 29.7048 31.9301 29.2848 31.9282 28.8603V25.8603C31.9159 25.1657 31.663 24.4969 31.2125 23.968C30.762 23.4391 30.142 23.0829 29.4582 22.9603ZM29.9582 28.9603C29.958 29.1023 29.9276 29.2426 29.8689 29.3719C29.8103 29.5013 29.7248 29.6166 29.6182 29.7103C29.5064 29.8068 29.3758 29.8789 29.2346 29.9219C29.0934 29.965 28.9447 29.978 28.7982 29.9603C25.0531 29.4801 21.5744 27.7668 18.9109 25.0906C16.2474 22.4144 14.5506 18.9277 14.0882 15.1803C14.0723 15.0338 14.0862 14.8856 14.1292 14.7447C14.1721 14.6038 14.2432 14.473 14.3382 14.3603C14.4319 14.2536 14.5472 14.1682 14.6765 14.1095C14.8059 14.0509 14.9462 14.0205 15.0882 14.0203H18.0882C18.3207 14.0151 18.5478 14.0912 18.7303 14.2354C18.9128 14.3796 19.0394 14.5829 19.0882 14.8103C19.1282 15.0837 19.1782 15.3537 19.2382 15.6203C19.3537 16.1475 19.5074 16.6655 19.6982 17.1703L18.2982 17.8203C18.1785 17.8752 18.0708 17.9533 17.9813 18.0499C17.8919 18.1466 17.8224 18.2599 17.7768 18.3835C17.7313 18.5071 17.7106 18.6384 17.716 18.77C17.7214 18.9016 17.7527 19.0309 17.8082 19.1503C19.2474 22.2331 21.7254 24.7111 24.8082 26.1503C25.0516 26.2503 25.3247 26.2503 25.5682 26.1503C25.6929 26.1057 25.8075 26.0368 25.9053 25.9475C26.0032 25.8582 26.0823 25.7504 26.1382 25.6303L26.7582 24.2303C27.2751 24.4152 27.8028 24.5688 28.3382 24.6903C28.6048 24.7503 28.8748 24.8003 29.1482 24.8403C29.3756 24.8891 29.5789 25.0157 29.7231 25.1982C29.8673 25.3807 29.9433 25.6078 29.9382 25.8403L29.9582 28.9603Z" fill="#7C7C8D"/>
</svg>
