<svg width="112" height="113" viewBox="0 0 112 113" fill="none" xmlns="http://www.w3.org/2000/svg">
<path d="M95.6591 87.6017C98.0928 89.5103 101.64 89.0975 103.296 86.4855C108.06 78.9714 110.98 70.4056 111.777 61.4906C112.742 50.7102 110.562 39.8814 105.501 30.3142C100.439 20.747 92.7144 12.8514 83.2599 7.58276C73.8055 2.31411 63.0268 -0.101856 52.228 0.627182C41.4292 1.35622 31.073 5.19902 22.4125 11.6906C13.752 18.1822 7.15823 27.0445 3.42902 37.2051C-0.300193 47.3658 -1.00505 58.3894 1.39972 68.9423C3.3884 77.6691 7.43321 85.7648 13.1639 92.5704C15.156 94.9361 18.7261 94.8684 20.8812 92.6501V92.6501C23.0362 90.4317 22.9529 86.9055 21.0205 84.4907C16.8115 79.2307 13.8272 73.0689 12.3198 66.4538C10.396 58.0115 10.9598 49.1926 13.9432 41.0641C16.9266 32.9356 22.2016 25.8458 29.13 20.6525C36.0584 15.4592 44.3433 12.385 52.9824 11.8017C61.6214 11.2185 70.2444 13.1513 77.8079 17.3662C85.3715 21.5811 91.5516 27.8976 95.6004 35.5514C99.6493 43.2051 101.393 51.8682 100.622 60.4925C100.017 67.2502 97.8882 73.7571 94.4243 79.5351C92.834 82.1878 93.2254 85.6932 95.6591 87.6017V87.6017Z" fill="#F4F5F9"/>
<path d="M20.8528 92.6224C18.6959 94.8391 15.1259 94.9041 13.1357 92.5368C9.61986 88.3549 6.72836 83.6731 4.5608 78.6361C2.39323 73.5992 0.981241 68.2807 0.361475 62.8525C0.0106315 59.7797 2.51221 57.2319 5.60472 57.1896V57.1896C8.69722 57.1473 11.2026 59.63 11.6301 62.6931C12.1824 66.65 13.2627 70.5237 14.8486 74.2089C16.4345 77.8942 18.5048 81.3418 20.9986 84.4632C22.929 86.8795 23.0096 90.4058 20.8528 92.6224V92.6224Z" fill="#A162F7"/>
</svg>
