<svg width="36" height="36" viewBox="0 0 36 36" fill="none" xmlns="http://www.w3.org/2000/svg">
<rect width="36" height="36" rx="8" fill="#407EF9" fill-opacity="0.1"/>
<path d="M27.2381 19.1545C27.2381 18.806 27.1571 18.4732 27.0109 18.1686C26.9958 18.0912 26.9786 18.0139 26.957 17.9355L25.3728 14.1215L25.362 14.0872C24.8077 12.4839 24.019 11 22.0191 11H14.3727C12.3235 11 11.5994 12.5207 11.0329 14.0783L9.37577 17.9016C9.1362 18.2745 9 18.701 9 19.1545V20.3413C9 20.5248 9.02233 20.7043 9.06478 20.8772C9.02351 20.9816 9 21.0942 9 21.2129V24.7427C9 25.2603 9.43196 25.68 9.96479 25.68H11.9669C12.4995 25.68 12.9314 25.2603 12.9314 24.7427V22.9775H23.4211V24.7427C23.4211 25.2603 23.8531 25.68 24.386 25.68H26.2735C26.8065 25.68 27.2384 25.2603 27.2384 24.7427V21.2125C27.2384 21.0942 27.2146 20.9812 27.1737 20.8771C27.216 20.7039 27.2384 20.5246 27.2384 20.3412V19.1546H27.2381V19.1545ZM12.2087 14.4612C12.8395 12.7323 13.3468 12.2045 14.3727 12.2045H22.0187C23.037 12.2045 23.6041 12.7932 24.1803 14.4538L25.3364 16.7296C24.9589 16.5938 24.5435 16.5185 24.1071 16.5185H12.1311C11.7381 16.5185 11.3626 16.5799 11.0161 16.691L12.2087 14.4612ZM13.2018 20.7921H11.0893C10.709 20.7921 10.4005 20.4921 10.4005 20.1227C10.4005 19.7531 10.709 19.4534 11.0893 19.4534H13.2018C13.5823 19.4534 13.8907 19.7531 13.8907 20.1227C13.8907 20.4921 13.5821 20.7921 13.2018 20.7921ZM20.6641 20.658H15.7505C15.5095 20.658 15.3143 20.4683 15.3143 20.2343C15.3143 20 15.5095 19.8103 15.7505 19.8103H20.6641C20.9053 19.8103 21.1004 20 21.1004 20.2343C21.1004 20.4683 20.9053 20.658 20.6641 20.658ZM25.0955 20.7921H22.9832C22.6025 20.7921 22.2942 20.4921 22.2942 20.1227C22.2942 19.7531 22.6028 19.4534 22.9832 19.4534H25.0955C25.4762 19.4534 25.7848 19.7531 25.7848 20.1227C25.7848 20.4921 25.4762 20.7921 25.0955 20.7921Z" fill="#407EF9"/>
</svg>
