<svg width="83" height="83" viewBox="0 0 83 83" fill="none" xmlns="http://www.w3.org/2000/svg">
<path d="M20.68 74V67H25.25V68.03H21.96V69.95H24.95V70.95H21.96V72.97H25.25V74H20.68ZM25.9613 74L27.7613 71.52L25.9613 69.04H27.3313L28.5913 70.8L29.8413 69.04H31.2213L29.4113 71.52L31.2213 74H29.8413L28.5913 72.24L27.3313 74H25.9613ZM34.203 74.12C33.6964 74.12 33.2497 74.01 32.863 73.79C32.4764 73.57 32.1697 73.2633 31.943 72.87C31.723 72.4767 31.613 72.0267 31.613 71.52C31.613 71.0133 31.723 70.5633 31.943 70.17C32.1697 69.7767 32.4764 69.47 32.863 69.25C33.2497 69.03 33.6964 68.92 34.203 68.92C34.8364 68.92 35.3697 69.0867 35.803 69.42C36.2364 69.7467 36.513 70.2 36.633 70.78H35.283C35.2164 70.54 35.083 70.3533 34.883 70.22C34.6897 70.08 34.4597 70.01 34.193 70.01C33.8397 70.01 33.5397 70.1433 33.293 70.41C33.0464 70.6767 32.923 71.0467 32.923 71.52C32.923 71.9933 33.0464 72.3633 33.293 72.63C33.5397 72.8967 33.8397 73.03 34.193 73.03C34.4597 73.03 34.6897 72.9633 34.883 72.83C35.083 72.6967 35.2164 72.5067 35.283 72.26H36.633C36.513 72.82 36.2364 73.27 35.803 73.61C35.3697 73.95 34.8364 74.12 34.203 74.12ZM40.1791 74.12C39.6791 74.12 39.2358 74.0133 38.8491 73.8C38.4625 73.5867 38.1591 73.2867 37.9391 72.9C37.7191 72.5133 37.6091 72.0667 37.6091 71.56C37.6091 71.0467 37.7158 70.59 37.9291 70.19C38.1491 69.79 38.4491 69.48 38.8291 69.26C39.2158 69.0333 39.6691 68.92 40.1891 68.92C40.6758 68.92 41.1058 69.0267 41.4791 69.24C41.8525 69.4533 42.1425 69.7467 42.3491 70.12C42.5625 70.4867 42.6691 70.8967 42.6691 71.35C42.6691 71.4233 42.6658 71.5 42.6591 71.58C42.6591 71.66 42.6558 71.7433 42.6491 71.83H38.8791C38.9058 72.2167 39.0391 72.52 39.2791 72.74C39.5258 72.96 39.8225 73.07 40.1691 73.07C40.4291 73.07 40.6458 73.0133 40.8191 72.9C40.9991 72.78 41.1325 72.6267 41.2191 72.44H42.5191C42.4258 72.7533 42.2691 73.04 42.0491 73.3C41.8358 73.5533 41.5691 73.7533 41.2491 73.9C40.9358 74.0467 40.5791 74.12 40.1791 74.12ZM40.1891 69.96C39.8758 69.96 39.5991 70.05 39.3591 70.23C39.1191 70.4033 38.9658 70.67 38.8991 71.03H41.3691C41.3491 70.7033 41.2291 70.4433 41.0091 70.25C40.7891 70.0567 40.5158 69.96 40.1891 69.96ZM43.7457 74V66.8H45.0257V74H43.7457ZM46.3336 74V66.8H47.6136V74H46.3336ZM51.3315 74.12C50.8315 74.12 50.3882 74.0133 50.0015 73.8C49.6148 73.5867 49.3115 73.2867 49.0915 72.9C48.8715 72.5133 48.7615 72.0667 48.7615 71.56C48.7615 71.0467 48.8682 70.59 49.0815 70.19C49.3015 69.79 49.6015 69.48 49.9815 69.26C50.3682 69.0333 50.8215 68.92 51.3415 68.92C51.8282 68.92 52.2582 69.0267 52.6315 69.24C53.0048 69.4533 53.2948 69.7467 53.5015 70.12C53.7148 70.4867 53.8215 70.8967 53.8215 71.35C53.8215 71.4233 53.8182 71.5 53.8115 71.58C53.8115 71.66 53.8082 71.7433 53.8015 71.83H50.0315C50.0582 72.2167 50.1915 72.52 50.4315 72.74C50.6782 72.96 50.9748 73.07 51.3215 73.07C51.5815 73.07 51.7982 73.0133 51.9715 72.9C52.1515 72.78 52.2848 72.6267 52.3715 72.44H53.6715C53.5782 72.7533 53.4215 73.04 53.2015 73.3C52.9882 73.5533 52.7215 73.7533 52.4015 73.9C52.0882 74.0467 51.7315 74.12 51.3315 74.12ZM51.3415 69.96C51.0282 69.96 50.7515 70.05 50.5115 70.23C50.2715 70.4033 50.1182 70.67 50.0515 71.03H52.5215C52.5015 70.7033 52.3815 70.4433 52.1615 70.25C51.9415 70.0567 51.6682 69.96 51.3415 69.96ZM54.898 74V69.04H56.028L56.128 69.88C56.2814 69.5867 56.5014 69.3533 56.788 69.18C57.0814 69.0067 57.4247 68.92 57.818 68.92C58.4314 68.92 58.908 69.1133 59.248 69.5C59.588 69.8867 59.758 70.4533 59.758 71.2V74H58.478V71.32C58.478 70.8933 58.3914 70.5667 58.218 70.34C58.0447 70.1133 57.7747 70 57.408 70C57.048 70 56.7514 70.1267 56.518 70.38C56.2914 70.6333 56.178 70.9867 56.178 71.44V74H54.898ZM63.192 74C62.672 74 62.2554 73.8733 61.942 73.62C61.6287 73.3667 61.472 72.9167 61.472 72.27V70.11H60.622V69.04H61.472L61.622 67.71H62.752V69.04H64.092V70.11H62.752V72.28C62.752 72.52 62.802 72.6867 62.902 72.78C63.0087 72.8667 63.1887 72.91 63.442 72.91H64.062V74H63.192Z" fill="#70CF97"/>
<path d="M31.208 45V42.92H25.688V41.288L30.936 33.8H33.256V41.144H34.728V42.92H33.256V45H31.208ZM27.88 41.144H31.336V36.056L27.88 41.144ZM40.354 45.192C39.5327 45.192 38.8233 45.048 38.226 44.76C37.6393 44.472 37.1753 44.0773 36.834 43.576C36.5033 43.064 36.3113 42.488 36.258 41.848H38.258C38.354 42.3067 38.5887 42.6907 38.962 43C39.3353 43.2987 39.7993 43.448 40.354 43.448C40.9513 43.448 41.4367 43.2293 41.81 42.792C42.194 42.3547 42.386 41.8107 42.386 41.16C42.386 40.488 42.194 39.9547 41.81 39.56C41.4367 39.1653 40.962 38.968 40.386 38.968C39.906 38.968 39.49 39.0853 39.138 39.32C38.786 39.5547 38.5353 39.848 38.386 40.2H36.418L37.378 33.8H43.586V35.592H38.914L38.402 38.184C38.6367 37.928 38.9567 37.72 39.362 37.56C39.7673 37.3893 40.2207 37.304 40.722 37.304C41.522 37.304 42.1887 37.4853 42.722 37.848C43.2553 38.2 43.6607 38.6693 43.938 39.256C44.2153 39.832 44.354 40.4613 44.354 41.144C44.354 41.9227 44.1833 42.616 43.842 43.224C43.5113 43.832 43.042 44.312 42.434 44.664C41.8367 45.016 41.1433 45.192 40.354 45.192ZM48.5639 39.304C48.0519 39.304 47.5879 39.192 47.1719 38.968C46.7559 38.7333 46.4252 38.4027 46.1799 37.976C45.9345 37.5493 45.8119 37.0427 45.8119 36.456C45.8119 35.8693 45.9345 35.3627 46.1799 34.936C46.4252 34.5093 46.7559 34.184 47.1719 33.96C47.5879 33.7253 48.0572 33.608 48.5799 33.608C49.0919 33.608 49.5505 33.7253 49.9559 33.96C50.3719 34.184 50.7025 34.5093 50.9479 34.936C51.1932 35.3627 51.3159 35.8693 51.3159 36.456C51.3159 37.0427 51.1932 37.5493 50.9479 37.976C50.7025 38.4027 50.3719 38.7333 49.9559 38.968C49.5399 39.192 49.0759 39.304 48.5639 39.304ZM47.9559 45L54.2759 33.8H56.2759L49.9559 45H47.9559ZM48.5639 37.88C48.8732 37.88 49.1399 37.7627 49.3639 37.528C49.5879 37.2827 49.6999 36.9253 49.6999 36.456C49.6999 35.9867 49.5879 35.6293 49.3639 35.384C49.1505 35.1387 48.8839 35.016 48.5639 35.016C48.2439 35.016 47.9719 35.1387 47.7479 35.384C47.5345 35.6293 47.4279 35.9867 47.4279 36.456C47.4279 36.9253 47.5345 37.2827 47.7479 37.528C47.9719 37.7627 48.2439 37.88 48.5639 37.88ZM55.7319 45.192C55.2199 45.192 54.7559 45.08 54.3399 44.856C53.9239 44.6213 53.5932 44.2907 53.3479 43.864C53.1025 43.4373 52.9799 42.9307 52.9799 42.344C52.9799 41.7573 53.1025 41.256 53.3479 40.84C53.5932 40.4133 53.9239 40.088 54.3399 39.864C54.7559 39.6293 55.2252 39.512 55.7479 39.512C56.2599 39.512 56.7185 39.6293 57.1239 39.864C57.5399 40.088 57.8705 40.4133 58.1159 40.84C58.3612 41.256 58.4839 41.7573 58.4839 42.344C58.4839 42.9307 58.3612 43.4373 58.1159 43.864C57.8705 44.2907 57.5399 44.6213 57.1239 44.856C56.7185 45.08 56.2545 45.192 55.7319 45.192ZM55.7319 43.768C56.0519 43.768 56.3185 43.6507 56.5319 43.416C56.7559 43.1707 56.8679 42.8133 56.8679 42.344C56.8679 41.8747 56.7559 41.5173 56.5319 41.272C56.3185 41.0267 56.0519 40.904 55.7319 40.904C55.4119 40.904 55.1399 41.0267 54.9159 41.272C54.7025 41.5173 54.5959 41.8747 54.5959 42.344C54.5959 42.8133 54.7025 43.1707 54.9159 43.416C55.1399 43.6507 55.4119 43.768 55.7319 43.768Z" fill="#242731"/>
<path d="M70.8449 70.8449C76.6488 65.0411 80.6013 57.6465 82.2026 49.5962C83.8039 41.546 82.982 33.2018 79.841 25.6186C76.7 18.0355 71.3808 11.5541 64.5562 6.99401C57.7315 2.43393 49.7079 3.75066e-07 41.5 0C33.2921 -3.75066e-07 25.2685 2.43393 18.4438 6.99401C11.6192 11.5541 6.30004 18.0355 3.159 25.6186C0.0179631 33.2018 -0.803876 41.546 0.79741 49.5962C2.3987 57.6465 6.35119 65.041 12.1551 70.8449L22.2704 60.7296C18.4672 56.9263 15.8771 52.0807 14.8278 46.8054C13.7785 41.5302 14.317 36.0622 16.3753 31.093C18.4337 26.1238 21.9193 21.8766 26.3914 18.8884C30.8636 15.9002 36.1214 14.3053 41.5 14.3053C46.8786 14.3053 52.1364 15.9002 56.6086 18.8884C61.0807 21.8766 64.5664 26.1238 66.6247 31.093C68.683 36.0622 69.2215 41.5302 68.1722 46.8054C67.1229 52.0807 64.5328 56.9263 60.7296 60.7296L70.8449 70.8449Z" fill="#F3F3F3"/>
<path d="M32.088 1.08138C24.8999 2.75522 18.2882 6.31571 12.9345 11.3958C7.58071 16.476 3.67857 22.8919 1.63027 29.9824C-0.418031 37.0729 -0.538384 44.5814 1.28162 51.7338C3.10162 58.8863 6.79612 65.4241 11.9843 70.6732L22.1585 60.617C18.7587 57.1773 16.3377 52.8932 15.1451 48.2062C13.9525 43.5192 14.0313 38.5989 15.3736 33.9526C16.7158 29.3062 19.2729 25.1019 22.7812 21.7729C26.2895 18.4439 30.6221 16.1108 35.3324 15.0139L32.088 1.08138Z" fill="#70CF97"/>
</svg>
