<svg width="83" height="83" viewBox="0 0 83 83" fill="none" xmlns="http://www.w3.org/2000/svg">
<path d="M20.68 74V67H25.25V68.03H21.96V69.95H24.95V70.95H21.96V72.97H25.25V74H20.68ZM25.9613 74L27.7613 71.52L25.9613 69.04H27.3313L28.5913 70.8L29.8413 69.04H31.2213L29.4113 71.52L31.2213 74H29.8413L28.5913 72.24L27.3313 74H25.9613ZM34.203 74.12C33.6964 74.12 33.2497 74.01 32.863 73.79C32.4764 73.57 32.1697 73.2633 31.943 72.87C31.723 72.4767 31.613 72.0267 31.613 71.52C31.613 71.0133 31.723 70.5633 31.943 70.17C32.1697 69.7767 32.4764 69.47 32.863 69.25C33.2497 69.03 33.6964 68.92 34.203 68.92C34.8364 68.92 35.3697 69.0867 35.803 69.42C36.2364 69.7467 36.513 70.2 36.633 70.78H35.283C35.2164 70.54 35.083 70.3533 34.883 70.22C34.6897 70.08 34.4597 70.01 34.193 70.01C33.8397 70.01 33.5397 70.1433 33.293 70.41C33.0464 70.6767 32.923 71.0467 32.923 71.52C32.923 71.9933 33.0464 72.3633 33.293 72.63C33.5397 72.8967 33.8397 73.03 34.193 73.03C34.4597 73.03 34.6897 72.9633 34.883 72.83C35.083 72.6967 35.2164 72.5067 35.283 72.26H36.633C36.513 72.82 36.2364 73.27 35.803 73.61C35.3697 73.95 34.8364 74.12 34.203 74.12ZM40.1791 74.12C39.6791 74.12 39.2358 74.0133 38.8491 73.8C38.4625 73.5867 38.1591 73.2867 37.9391 72.9C37.7191 72.5133 37.6091 72.0667 37.6091 71.56C37.6091 71.0467 37.7158 70.59 37.9291 70.19C38.1491 69.79 38.4491 69.48 38.8291 69.26C39.2158 69.0333 39.6691 68.92 40.1891 68.92C40.6758 68.92 41.1058 69.0267 41.4791 69.24C41.8525 69.4533 42.1425 69.7467 42.3491 70.12C42.5625 70.4867 42.6691 70.8967 42.6691 71.35C42.6691 71.4233 42.6658 71.5 42.6591 71.58C42.6591 71.66 42.6558 71.7433 42.6491 71.83H38.8791C38.9058 72.2167 39.0391 72.52 39.2791 72.74C39.5258 72.96 39.8225 73.07 40.1691 73.07C40.4291 73.07 40.6458 73.0133 40.8191 72.9C40.9991 72.78 41.1325 72.6267 41.2191 72.44H42.5191C42.4258 72.7533 42.2691 73.04 42.0491 73.3C41.8358 73.5533 41.5691 73.7533 41.2491 73.9C40.9358 74.0467 40.5791 74.12 40.1791 74.12ZM40.1891 69.96C39.8758 69.96 39.5991 70.05 39.3591 70.23C39.1191 70.4033 38.9658 70.67 38.8991 71.03H41.3691C41.3491 70.7033 41.2291 70.4433 41.0091 70.25C40.7891 70.0567 40.5158 69.96 40.1891 69.96ZM43.7457 74V66.8H45.0257V74H43.7457ZM46.3336 74V66.8H47.6136V74H46.3336ZM51.3315 74.12C50.8315 74.12 50.3882 74.0133 50.0015 73.8C49.6148 73.5867 49.3115 73.2867 49.0915 72.9C48.8715 72.5133 48.7615 72.0667 48.7615 71.56C48.7615 71.0467 48.8682 70.59 49.0815 70.19C49.3015 69.79 49.6015 69.48 49.9815 69.26C50.3682 69.0333 50.8215 68.92 51.3415 68.92C51.8282 68.92 52.2582 69.0267 52.6315 69.24C53.0048 69.4533 53.2948 69.7467 53.5015 70.12C53.7148 70.4867 53.8215 70.8967 53.8215 71.35C53.8215 71.4233 53.8182 71.5 53.8115 71.58C53.8115 71.66 53.8082 71.7433 53.8015 71.83H50.0315C50.0582 72.2167 50.1915 72.52 50.4315 72.74C50.6782 72.96 50.9748 73.07 51.3215 73.07C51.5815 73.07 51.7982 73.0133 51.9715 72.9C52.1515 72.78 52.2848 72.6267 52.3715 72.44H53.6715C53.5782 72.7533 53.4215 73.04 53.2015 73.3C52.9882 73.5533 52.7215 73.7533 52.4015 73.9C52.0882 74.0467 51.7315 74.12 51.3315 74.12ZM51.3415 69.96C51.0282 69.96 50.7515 70.05 50.5115 70.23C50.2715 70.4033 50.1182 70.67 50.0515 71.03H52.5215C52.5015 70.7033 52.3815 70.4433 52.1615 70.25C51.9415 70.0567 51.6682 69.96 51.3415 69.96ZM54.898 74V69.04H56.028L56.128 69.88C56.2814 69.5867 56.5014 69.3533 56.788 69.18C57.0814 69.0067 57.4247 68.92 57.818 68.92C58.4314 68.92 58.908 69.1133 59.248 69.5C59.588 69.8867 59.758 70.4533 59.758 71.2V74H58.478V71.32C58.478 70.8933 58.3914 70.5667 58.218 70.34C58.0447 70.1133 57.7747 70 57.408 70C57.048 70 56.7514 70.1267 56.518 70.38C56.2914 70.6333 56.178 70.9867 56.178 71.44V74H54.898ZM63.192 74C62.672 74 62.2554 73.8733 61.942 73.62C61.6287 73.3667 61.472 72.9167 61.472 72.27V70.11H60.622V69.04H61.472L61.622 67.71H62.752V69.04H64.092V70.11H62.752V72.28C62.752 72.52 62.802 72.6867 62.902 72.78C63.0087 72.8667 63.1887 72.91 63.442 72.91H64.062V74H63.192Z" fill="#70CF97"/>
<path d="M30.104 45.192C29.2827 45.192 28.5733 45.048 27.976 44.76C27.3893 44.472 26.9253 44.0773 26.584 43.576C26.2533 43.064 26.0613 42.488 26.008 41.848H28.008C28.104 42.3067 28.3387 42.6907 28.712 43C29.0853 43.2987 29.5493 43.448 30.104 43.448C30.7013 43.448 31.1867 43.2293 31.56 42.792C31.944 42.3547 32.136 41.8107 32.136 41.16C32.136 40.488 31.944 39.9547 31.56 39.56C31.1867 39.1653 30.712 38.968 30.136 38.968C29.656 38.968 29.24 39.0853 28.888 39.32C28.536 39.5547 28.2853 39.848 28.136 40.2H26.168L27.128 33.8H33.336V35.592H28.664L28.152 38.184C28.3867 37.928 28.7067 37.72 29.112 37.56C29.5173 37.3893 29.9707 37.304 30.472 37.304C31.272 37.304 31.9387 37.4853 32.472 37.848C33.0053 38.2 33.4107 38.6693 33.688 39.256C33.9653 39.832 34.104 40.4613 34.104 41.144C34.104 41.9227 33.9333 42.616 33.592 43.224C33.2613 43.832 32.792 44.312 32.184 44.664C31.5867 45.016 30.8933 45.192 30.104 45.192ZM40.0259 45.192C39.2045 45.192 38.4952 45.048 37.8979 44.76C37.3112 44.472 36.8472 44.0773 36.5059 43.576C36.1752 43.064 35.9832 42.488 35.9299 41.848H37.9299C38.0259 42.3067 38.2605 42.6907 38.6339 43C39.0072 43.2987 39.4712 43.448 40.0259 43.448C40.6232 43.448 41.1085 43.2293 41.4819 42.792C41.8659 42.3547 42.0579 41.8107 42.0579 41.16C42.0579 40.488 41.8659 39.9547 41.4819 39.56C41.1085 39.1653 40.6339 38.968 40.0579 38.968C39.5779 38.968 39.1619 39.0853 38.8099 39.32C38.4579 39.5547 38.2072 39.848 38.0579 40.2H36.0899L37.0499 33.8H43.2579V35.592H38.5859L38.0739 38.184C38.3085 37.928 38.6285 37.72 39.0339 37.56C39.4392 37.3893 39.8925 37.304 40.3939 37.304C41.1939 37.304 41.8605 37.4853 42.3939 37.848C42.9272 38.2 43.3325 38.6693 43.6099 39.256C43.8872 39.832 44.0259 40.4613 44.0259 41.144C44.0259 41.9227 43.8552 42.616 43.5139 43.224C43.1832 43.832 42.7139 44.312 42.1059 44.664C41.5085 45.016 40.8152 45.192 40.0259 45.192ZM48.2358 39.304C47.7238 39.304 47.2598 39.192 46.8438 38.968C46.4278 38.7333 46.0971 38.4027 45.8518 37.976C45.6064 37.5493 45.4838 37.0427 45.4838 36.456C45.4838 35.8693 45.6064 35.3627 45.8518 34.936C46.0971 34.5093 46.4278 34.184 46.8438 33.96C47.2598 33.7253 47.7291 33.608 48.2518 33.608C48.7638 33.608 49.2224 33.7253 49.6278 33.96C50.0438 34.184 50.3744 34.5093 50.6198 34.936C50.8651 35.3627 50.9878 35.8693 50.9878 36.456C50.9878 37.0427 50.8651 37.5493 50.6198 37.976C50.3744 38.4027 50.0438 38.7333 49.6278 38.968C49.2118 39.192 48.7478 39.304 48.2358 39.304ZM47.6278 45L53.9478 33.8H55.9478L49.6278 45H47.6278ZM48.2358 37.88C48.5451 37.88 48.8118 37.7627 49.0358 37.528C49.2598 37.2827 49.3718 36.9253 49.3718 36.456C49.3718 35.9867 49.2598 35.6293 49.0358 35.384C48.8224 35.1387 48.5558 35.016 48.2358 35.016C47.9158 35.016 47.6438 35.1387 47.4198 35.384C47.2064 35.6293 47.0998 35.9867 47.0998 36.456C47.0998 36.9253 47.2064 37.2827 47.4198 37.528C47.6438 37.7627 47.9158 37.88 48.2358 37.88ZM55.4038 45.192C54.8918 45.192 54.4278 45.08 54.0118 44.856C53.5958 44.6213 53.2651 44.2907 53.0198 43.864C52.7744 43.4373 52.6518 42.9307 52.6518 42.344C52.6518 41.7573 52.7744 41.256 53.0198 40.84C53.2651 40.4133 53.5958 40.088 54.0118 39.864C54.4278 39.6293 54.8971 39.512 55.4198 39.512C55.9318 39.512 56.3904 39.6293 56.7958 39.864C57.2118 40.088 57.5424 40.4133 57.7878 40.84C58.0331 41.256 58.1558 41.7573 58.1558 42.344C58.1558 42.9307 58.0331 43.4373 57.7878 43.864C57.5424 44.2907 57.2118 44.6213 56.7958 44.856C56.3904 45.08 55.9264 45.192 55.4038 45.192ZM55.4038 43.768C55.7238 43.768 55.9904 43.6507 56.2038 43.416C56.4278 43.1707 56.5398 42.8133 56.5398 42.344C56.5398 41.8747 56.4278 41.5173 56.2038 41.272C55.9904 41.0267 55.7238 40.904 55.4038 40.904C55.0838 40.904 54.8118 41.0267 54.5878 41.272C54.3744 41.5173 54.2678 41.8747 54.2678 42.344C54.2678 42.8133 54.3744 43.1707 54.5878 43.416C54.8118 43.6507 55.0838 43.768 55.4038 43.768Z" fill="#242731"/>
<path d="M70.8449 70.8449C76.6488 65.0411 80.6013 57.6465 82.2026 49.5962C83.8039 41.546 82.982 33.2018 79.841 25.6186C76.7 18.0355 71.3808 11.5541 64.5562 6.99401C57.7315 2.43393 49.7079 3.75066e-07 41.5 0C33.2921 -3.75066e-07 25.2685 2.43393 18.4438 6.99401C11.6192 11.5541 6.30004 18.0355 3.159 25.6186C0.0179631 33.2018 -0.803876 41.546 0.79741 49.5962C2.3987 57.6465 6.35119 65.041 12.1551 70.8449L22.2704 60.7296C18.4672 56.9263 15.8771 52.0807 14.8278 46.8054C13.7785 41.5302 14.317 36.0622 16.3753 31.093C18.4337 26.1238 21.9193 21.8766 26.3914 18.8884C30.8636 15.9002 36.1214 14.3053 41.5 14.3053C46.8786 14.3053 52.1364 15.9002 56.6086 18.8884C61.0807 21.8766 64.5664 26.1238 66.6247 31.093C68.683 36.0622 69.2215 41.5302 68.1722 46.8054C67.1229 52.0807 64.5328 56.9263 60.7296 60.7296L70.8449 70.8449Z" fill="#F3F3F3"/>
<path d="M55.258 2.34686C46.3863 -0.770542 36.7189 -0.782574 27.8395 2.31274C18.9601 5.40805 11.3952 11.4272 6.38395 19.3841C1.37273 27.341 -0.787637 36.7639 0.256753 46.1092C1.30114 55.4544 5.48837 64.168 12.1325 70.8223L22.2556 60.7148C17.9018 56.3542 15.1579 50.6443 14.4735 44.5204C13.7891 38.3965 15.2048 32.2217 18.4886 27.0076C21.7725 21.7934 26.7297 17.8491 32.5484 15.8208C38.367 13.7925 44.702 13.8003 50.5155 15.8432L55.258 2.34686Z" fill="#70CF97"/>
</svg>
