<svg width="36" height="36" viewBox="0 0 36 36" fill="none" xmlns="http://www.w3.org/2000/svg">
<rect width="36" height="36" rx="8" fill="#A162F7" fill-opacity="0.1"/>
<path d="M17.34 26.56V25.02C16.0333 24.8733 14.9867 24.4133 14.2 23.64C13.4133 22.8667 13.0133 21.8533 13 20.6H15.24C15.2533 21.2267 15.44 21.78 15.8 22.26C16.16 22.7267 16.6733 23.04 17.34 23.2V18.38C17.2333 18.3533 17.12 18.32 17 18.28C16.8933 18.24 16.78 18.2 16.66 18.16C15.58 17.8 14.7667 17.3333 14.22 16.76C13.6867 16.1867 13.42 15.4333 13.42 14.5C13.4067 13.4067 13.76 12.5133 14.48 11.82C15.2 11.1267 16.1533 10.72 17.34 10.6V9H18.7V10.62C19.86 10.7533 20.7933 11.1733 21.5 11.88C22.2067 12.5867 22.5667 13.4733 22.58 14.54H20.34C20.3267 14.1 20.18 13.6867 19.9 13.3C19.6333 12.9 19.2333 12.6267 18.7 12.48V16.76C18.8067 16.8 18.9133 16.84 19.02 16.88C19.1267 16.9067 19.2333 16.94 19.34 16.98C20.0333 17.2067 20.6533 17.48 21.2 17.8C21.7467 18.12 22.18 18.54 22.5 19.06C22.8333 19.58 23 20.24 23 21.04C23 21.7067 22.84 22.3333 22.52 22.92C22.2 23.4933 21.72 23.9733 21.08 24.36C20.44 24.7467 19.6467 24.9733 18.7 25.04V26.56H17.34ZM15.62 14.32C15.62 14.8533 15.7733 15.2667 16.08 15.56C16.3867 15.84 16.8067 16.0867 17.34 16.3V12.42C16.8333 12.5133 16.42 12.7267 16.1 13.06C15.78 13.38 15.62 13.8 15.62 14.32ZM20.76 21.18C20.76 20.5267 20.5667 20.0333 20.18 19.7C19.7933 19.3533 19.3 19.0667 18.7 18.84V23.24C19.3533 23.16 19.86 22.9333 20.22 22.56C20.58 22.1867 20.76 21.7267 20.76 21.18Z" fill="#A162F7"/>
</svg>
