<svg width="20" height="20" viewBox="0 0 20 20" fill="none" xmlns="http://www.w3.org/2000/svg">
<path d="M10.5894 7.2558L12.7443 9.41062C13.0697 9.73606 13.0697 10.2637 12.7443 10.5891L9.15881 14.1746C8.61129 14.7221 7.99014 15.1906 7.31327 15.5667L3.38315 17.7501C2.65051 18.1571 1.84296 17.3496 2.24998 16.6169L4.43339 12.6868C4.80942 12.0099 5.27796 11.3888 5.82547 10.8413L9.41094 7.2558C9.73637 6.93036 10.264 6.93036 10.5894 7.2558Z" fill="#A9ABAD"/>
<path d="M15.8334 7.49998L16.4584 8.12502C16.8036 8.4702 16.8036 9.02984 16.4584 9.37502C16.1133 9.7202 15.5536 9.7202 15.2084 9.37502L10.6251 4.79169C10.2799 4.44651 10.2799 3.88687 10.6251 3.54169C10.9703 3.19651 11.5299 3.19651 11.8751 3.54169L12.5001 4.16664L14.1668 2.49993C15.0872 1.57945 16.5796 1.57945 17.5001 2.49993C18.4206 3.4204 18.4206 4.91278 17.5001 5.83326L15.8334 7.49998Z" fill="#A9ABAD"/>
</svg>
